<svg width="228" height="218" viewBox="0 0 228 218" fill="none" xmlns="http://www.w3.org/2000/svg">
<path d="M84.6373 128.132C82.7359 128.132 73.416 127.752 66.0232 120.622C59.9732 114.788 56.9074 106.249 56.9074 95.2436C56.9074 84.2385 59.9754 75.7009 66.0232 69.8652C73.691 62.469 83.4342 62.3336 84.8199 62.3572H156.754C159.721 62.3572 162.125 64.7624 162.125 67.7308C162.125 70.6992 159.721 73.1044 156.754 73.1044H84.5943V73.1022C84.1152 73.1022 77.9685 73.1968 73.3859 77.6956C69.581 81.4313 67.6496 87.3358 67.6496 95.2436C67.6496 103.151 69.5789 109.056 73.3859 112.792C77.9685 117.29 84.1152 117.385 84.5943 117.385H84.6008L84.7232 117.379L84.7748 117.383H128.182C131.149 117.383 133.553 119.788 133.553 122.756C133.553 125.725 131.149 128.13 128.182 128.13H84.8199C84.7705 128.13 84.7082 128.13 84.6373 128.13V128.132Z" fill="white"/>
<path d="M157.031 73.1001C155.83 73.1001 154.623 72.7003 153.621 71.8771L120.856 44.9167C118.565 43.0316 118.235 39.6463 120.119 37.3528C122.003 35.0615 125.387 34.7305 127.679 36.6156L160.445 63.576C162.735 65.461 163.066 68.8464 161.182 71.1398C160.12 72.4316 158.582 73.1001 157.031 73.1001Z" fill="white"/>
<path d="M143.363 155.645C143.292 155.645 143.232 155.645 143.18 155.645H71.2461C68.2791 155.645 65.875 153.24 65.875 150.271C65.875 147.303 68.2791 144.898 71.2461 144.898H143.406V144.9C143.885 144.9 150.031 144.805 154.614 140.307C158.419 136.571 160.35 130.666 160.35 122.759C160.35 114.851 158.389 108.85 154.522 105.118C149.75 100.516 143.489 100.615 143.423 100.615L143.227 100.619H99.8203C96.8533 100.619 94.4492 98.2141 94.4492 95.2458C94.4492 92.2774 96.8533 89.8722 99.8203 89.8722H143.182C144.562 89.8507 154.309 89.9839 161.979 97.3802C168.029 103.214 171.095 111.753 171.095 122.759C171.095 133.764 168.027 142.301 161.979 148.137C154.588 155.267 145.266 155.647 143.365 155.647L143.363 155.645Z" fill="white"/>
<path d="M103.728 182.605C102.527 182.605 101.32 182.203 100.319 181.382L67.5529 154.422C65.2627 152.537 64.9318 149.151 66.816 146.858C68.7002 144.567 72.0861 144.236 74.3763 146.121L107.142 173.081C109.432 174.966 109.763 178.352 107.879 180.645C106.818 181.937 105.279 182.605 103.728 182.605Z" fill="white"/>
</svg>
